<?xml version="1.0" standalone="no"?>
<!DOCTYPE svg PUBLIC "-//W3C//DTD SVG 20010904//EN"
 "http://www.w3.org/TR/2001/REC-SVG-20010904/DTD/svg10.dtd">
<svg version="1.0" xmlns="http://www.w3.org/2000/svg"
 width="699.000000pt" height="30.000000pt" viewBox="0 0 699.000000 30.000000"
 preserveAspectRatio="xMidYMid meet">

<g transform="translate(0.000000,30.000000) scale(0.100000,-0.100000)"
fill="#000000" stroke="none">
<path d="M466 292 c-304 -1 -443 -6 -453 -13 -10 -9 -13 -45 -13 -140 l0 -129
99 0 c106 0 111 2 111 56 l0 24 354 0 c387 0 435 3 465 32 27 25 30 128 5 149
-26 21 -101 24 -568 21z m379 -97 l0 -40 -322 -3 -323 -2 0 45 0 45 323 -2
322 -3 0 -40z"/>
<path d="M1706 285 c-19 -10 -21 -21 -24 -143 l-3 -132 96 0 95 0 0 45 0 45
270 0 c302 0 332 -5 353 -59 l11 -30 98 -3 c92 -3 98 -2 98 16 0 11 -12 33
-27 49 -19 20 -24 31 -15 34 31 11 42 36 42 92 0 97 34 91 -505 94 -306 1
-476 -2 -489 -8z m799 -90 l0 -40 -315 0 -315 0 -3 28 c-7 60 -21 58 320 55
l313 -3 0 -40z"/>
<path d="M3395 287 c-3 -7 -4 -71 -3 -143 l3 -129 100 0 100 0 0 140 0 140
-98 3 c-74 2 -99 0 -102 -11z"/>
<path d="M4293 287 c-3 -5 -2 -52 2 -105 8 -107 14 -120 80 -156 39 -21 49
-21 485 -21 l445 0 3 142 3 142 -97 3 c-52 2 -98 1 -100 -1 -2 -2 -4 -53 -4
-113 l0 -108 -294 0 c-229 0 -296 3 -304 13 -6 7 -13 57 -14 111 l-3 98 -98 1
c-55 1 -101 -2 -104 -6z"/>
<path d="M6475 290 c-275 -3 -506 -9 -512 -13 -8 -5 -13 -31 -13 -68 0 -91
-10 -89 450 -89 l380 0 0 -30 0 -30 -399 0 c-220 0 -406 -3 -415 -6 -9 -3 -16
-17 -16 -30 l0 -24 468 0 c257 0 485 5 507 10 48 11 65 32 65 81 0 40 -18 65
-57 80 -13 5 -195 9 -404 9 l-379 0 0 30 0 30 404 0 c222 0 411 3 420 6 16 6
22 40 9 46 -5 2 -233 1 -508 -2z"/>
</g>
</svg>
